<svg width="30" height="29" viewBox="0 0 30 29" fill="none" xmlns="http://www.w3.org/2000/svg">
<g clip-path="url(#clip0_116_1870)">
<path d="M8.56757 12.2679V16.7321C8.56757 17.4718 7.95896 18.0714 7.20819 18.0714H1.46863C0.717856 18.0714 0.109253 17.4718 0.109253 16.7321V12.2679C0.109253 11.5282 0.717856 10.9286 1.46863 10.9286H7.20819C7.95896 10.9286 8.56757 11.5282 8.56757 12.2679ZM0.109253 21.1964V25.6607C0.109253 26.4004 0.717856 27 1.46863 27H7.20819C7.95896 27 8.56757 26.4004 8.56757 25.6607V21.1964C8.56757 20.4568 7.95896 19.8571 7.20819 19.8571H1.46863C0.717856 19.8571 0.109253 20.4568 0.109253 21.1964ZM7.20819 2H1.46863C0.717856 2 0.109253 2.59961 0.109253 3.33929V7.80357C0.109253 8.54325 0.717856 9.14286 1.46863 9.14286H7.20819C7.95896 9.14286 8.56757 8.54325 8.56757 7.80357V3.33929C8.56757 2.59961 7.95896 2 7.20819 2ZM11.7394 27H27.7499C28.5006 27 29.1093 26.4004 29.1093 25.6607V21.1964C29.1093 20.4568 28.5006 19.8571 27.7499 19.8571H11.7394C10.9887 19.8571 10.3801 20.4568 10.3801 21.1964V25.6607C10.3801 26.4004 10.9887 27 11.7394 27ZM10.3801 3.33929V7.80357C10.3801 8.54325 10.9887 9.14286 11.7394 9.14286H27.7499C28.5006 9.14286 29.1093 8.54325 29.1093 7.80357V3.33929C29.1093 2.59961 28.5006 2 27.7499 2H11.7394C10.9887 2 10.3801 2.59961 10.3801 3.33929ZM11.7394 18.0714H27.7499C28.5006 18.0714 29.1093 17.4718 29.1093 16.7321V12.2679C29.1093 11.5282 28.5006 10.9286 27.7499 10.9286H11.7394C10.9887 10.9286 10.3801 11.5282 10.3801 12.2679V16.7321C10.3801 17.4718 10.9887 18.0714 11.7394 18.0714Z" fill="#CCCCCC"/>
</g>
<defs>
<clipPath id="clip0_116_1870">
<rect width="29" height="29" fill="white" transform="translate(0.109253)"/>
</clipPath>
</defs>
</svg>
