<svg width="30" height="29" viewBox="0 0 30 29" fill="none" xmlns="http://www.w3.org/2000/svg">
<g clip-path="url(#clip0_143_3630)">
<path d="M8.56769 12.2679V16.7321C8.56769 17.4718 7.95909 18.0714 7.20831 18.0714H1.46875C0.717979 18.0714 0.109375 17.4718 0.109375 16.7321V12.2679C0.109375 11.5282 0.717979 10.9286 1.46875 10.9286H7.20831C7.95909 10.9286 8.56769 11.5282 8.56769 12.2679ZM0.109375 21.1964V25.6607C0.109375 26.4004 0.717979 27 1.46875 27H7.20831C7.95909 27 8.56769 26.4004 8.56769 25.6607V21.1964C8.56769 20.4568 7.95909 19.8571 7.20831 19.8571H1.46875C0.717979 19.8571 0.109375 20.4568 0.109375 21.1964ZM7.20831 2H1.46875C0.717979 2 0.109375 2.59961 0.109375 3.33929V7.80357C0.109375 8.54325 0.717979 9.14286 1.46875 9.14286H7.20831C7.95909 9.14286 8.56769 8.54325 8.56769 7.80357V3.33929C8.56769 2.59961 7.95909 2 7.20831 2ZM11.7396 27H27.75C28.5008 27 29.1094 26.4004 29.1094 25.6607V21.1964C29.1094 20.4568 28.5008 19.8571 27.75 19.8571H11.7396C10.9888 19.8571 10.3802 20.4568 10.3802 21.1964V25.6607C10.3802 26.4004 10.9888 27 11.7396 27ZM10.3802 3.33929V7.80357C10.3802 8.54325 10.9888 9.14286 11.7396 9.14286H27.75C28.5008 9.14286 29.1094 8.54325 29.1094 7.80357V3.33929C29.1094 2.59961 28.5008 2 27.75 2H11.7396C10.9888 2 10.3802 2.59961 10.3802 3.33929ZM11.7396 18.0714H27.75C28.5008 18.0714 29.1094 17.4718 29.1094 16.7321V12.2679C29.1094 11.5282 28.5008 10.9286 27.75 10.9286H11.7396C10.9888 10.9286 10.3802 11.5282 10.3802 12.2679V16.7321C10.3802 17.4718 10.9888 18.0714 11.7396 18.0714Z" fill="#D92A22"/>
</g>
<defs>
<clipPath id="clip0_143_3630">
<rect width="29" height="29" fill="white" transform="translate(0.109375)"/>
</clipPath>
</defs>
</svg>
