<svg width="70" height="70" viewBox="0 0 70 70" fill="none" xmlns="http://www.w3.org/2000/svg">
<circle cx="35" cy="35" r="35" fill="#D92A22" fill-opacity="0.3"/>
<path d="M32.4242 44.8367L23.1684 35.735C23.1151 35.6826 23.0727 35.6202 23.0438 35.5515C23.0149 35.4827 23 35.4091 23 35.3346C23 35.2602 23.0149 35.1865 23.0438 35.1178C23.0727 35.0491 23.1151 34.9867 23.1684 34.9342L25.5051 32.6216C25.7284 32.4009 26.0892 32.4009 26.3125 32.6216L32.406 38.6098C32.6293 38.8305 32.9928 38.828 33.216 38.6072L46.6803 25.1678C46.9036 24.9445 47.2671 24.9445 47.493 25.1652L49.8322 27.4779C50.0555 27.6986 50.0555 28.0554 49.8348 28.2761L35.1658 42.9091L35.1684 42.9116L33.2342 44.8341C33.0109 45.0549 32.6474 45.0549 32.4242 44.8367Z" fill="#D92A22" stroke="#D92A22" stroke-width="2" stroke-miterlimit="10"/>
</svg>
