<svg width="26" height="25" viewBox="0 0 26 25" fill="none" xmlns="http://www.w3.org/2000/svg">
<path d="M0.109253 3.40299C0.109253 2.50046 0.467781 1.63489 1.10596 0.996711C1.74415 0.358528 2.60971 0 3.51224 0H12.1093V12H0.109253V3.40299Z" fill="#D92A22"/>
<path d="M0.109253 13V21.597C0.109253 22.4995 0.467781 23.3651 1.10596 24.0033C1.74415 24.6415 2.60971 25 3.51224 25H12.1093V13H0.109253Z" fill="#D92A22"/>
<path d="M13.1093 25H21.7063C22.6088 25 23.4744 24.6415 24.1125 24.0033C24.7507 23.3651 25.1093 22.4995 25.1093 21.597V13H13.1093V25Z" fill="#D92A22"/>
<path d="M25.1093 12V3.40299C25.1093 2.50046 24.7507 1.63489 24.1125 0.996711C23.4744 0.358528 22.6088 0 21.7063 0H13.1093V12H25.1093Z" fill="#D92A22"/>
</svg>
