<svg width="26" height="25" viewBox="0 0 26 25" fill="none" xmlns="http://www.w3.org/2000/svg">
<g clip-path="url(#clip0_158_2593)">
<path d="M0.109375 3.40299C0.109375 2.50046 0.467903 1.63489 1.10609 0.996711C1.74427 0.358528 2.60983 0 3.51236 0H12.1094V12H0.109375V3.40299Z" fill="#CCCCCC"/>
<path d="M0.109375 13V21.597C0.109375 22.4995 0.467903 23.3651 1.10609 24.0033C1.74427 24.6415 2.60983 25 3.51236 25H12.1094V13H0.109375Z" fill="#CCCCCC"/>
<path d="M13.1094 25H21.7064C22.6089 25 23.4745 24.6415 24.1127 24.0033C24.7508 23.3651 25.1094 22.4995 25.1094 21.597V13H13.1094V25Z" fill="#CCCCCC"/>
<path d="M25.1094 12V3.40299C25.1094 2.50046 24.7508 1.63489 24.1127 0.996711C23.4745 0.358528 22.6089 0 21.7064 0H13.1094V12H25.1094Z" fill="#CCCCCC"/>
</g>
<defs>
<clipPath id="clip0_158_2593">
<rect width="25" height="25" fill="white" transform="translate(0.109375)"/>
</clipPath>
</defs>
</svg>
