<svg width="10" height="11" viewBox="0 0 10 11" fill="none" xmlns="http://www.w3.org/2000/svg">
<path d="M4.71759 0C2.35509 0 0.21759 1.80003 0.21759 4.58392C0.21759 6.36158 1.59572 8.45229 4.34634 10.8616C4.56009 11.0461 4.88072 11.0461 5.09447 10.8616C7.83947 8.45229 9.21759 6.36158 9.21759 4.58392C9.21759 1.80003 7.08009 0 4.71759 0ZM4.71759 5.59014C4.09884 5.59014 3.59259 5.08703 3.59259 4.47211C3.59259 3.8572 4.09884 3.35408 4.71759 3.35408C5.33634 3.35408 5.84259 3.8572 5.84259 4.47211C5.84259 5.08703 5.33634 5.59014 4.71759 5.59014Z" fill="#D92A22"/>
</svg>
