<svg width="10" height="11" viewBox="0 0 10 11" fill="none" xmlns="http://www.w3.org/2000/svg">
<path d="M4.71777 0C2.35527 0 0.217773 1.80002 0.217773 4.58392C0.217773 6.36158 1.5959 8.45229 4.34652 10.8616C4.56027 11.0461 4.8809 11.0461 5.09465 10.8616C7.83965 8.45229 9.21777 6.36158 9.21777 4.58392C9.21777 1.80002 7.08027 0 4.71777 0ZM4.71777 5.59014C4.09902 5.59014 3.59277 5.08703 3.59277 4.47211C3.59277 3.8572 4.09902 3.35408 4.71777 3.35408C5.33652 3.35408 5.84277 3.8572 5.84277 4.47211C5.84277 5.08703 5.33652 5.59014 4.71777 5.59014Z" fill="white"/>
</svg>
