<svg width="18" height="25" viewBox="0 0 18 25" fill="none" xmlns="http://www.w3.org/2000/svg">
<path d="M3.03836 0.548519L4.42178 0.118514C5.72034 -0.283991 7.10504 0.367267 7.66175 1.63978L8.76617 4.17481C9.24702 5.27857 8.98088 6.57734 8.10532 7.38485L5.6702 9.63238C5.81934 10.9774 6.28476 12.3012 7.0639 13.6037C7.80418 14.864 8.79706 15.967 9.98372 16.8475L12.9087 15.8974C14.0183 15.5387 15.2255 15.9524 15.9044 16.9237L17.4896 19.1862C18.2804 20.3163 18.1389 21.8738 17.1579 22.8313L16.1062 23.8575C15.0597 24.8788 13.5644 25.2501 12.1823 24.8301C8.91788 23.84 5.91705 20.9013 3.17851 16.0137C0.436105 11.1186 -0.532029 6.96359 0.275392 3.55355C0.614817 2.11854 1.66523 0.974774 3.03836 0.548519Z" fill="#D92A22"/>
</svg>
