<svg width="12" height="16" viewBox="0 0 12 16" fill="none" xmlns="http://www.w3.org/2000/svg">
<path d="M2.52297 0.62916L3.35302 0.371157C4.13215 0.129654 4.96297 0.520409 5.297 1.28392L5.95965 2.80494C6.24816 3.46719 6.08848 4.24645 5.56314 4.73096L4.10207 6.07947C4.19155 6.88648 4.47081 7.68074 4.93829 8.46225C5.38246 9.21842 5.97819 9.88024 6.69019 10.4085L8.44517 9.83852C9.1109 9.62327 9.83527 9.87152 10.2426 10.4543L11.1937 11.8118C11.6682 12.4898 11.5833 13.4243 10.9947 13.9988L10.3637 14.6146C9.73576 15.2273 8.83859 15.4501 8.00932 15.1981C6.05068 14.6041 4.25018 12.8408 2.60705 9.90827C0.961614 6.97123 0.380734 4.47821 0.865186 2.43218C1.06884 1.57117 1.69909 0.884913 2.52297 0.62916Z" fill="white"/>
</svg>
