<svg width="13" height="11" viewBox="0 0 13 11" fill="none" xmlns="http://www.w3.org/2000/svg">
<path d="M5.57294 0.792356C5.91 -0.0410904 7.09 -0.041092 7.42706 0.792354L8.21441 2.73925C8.35766 3.09346 8.69023 3.33509 9.07138 3.36187L11.1663 3.50906C12.0631 3.57207 12.4277 4.69433 11.7392 5.27243L10.1309 6.62287C9.83833 6.86857 9.7113 7.25953 9.80361 7.6303L10.311 9.66816C10.5282 10.5405 9.57354 11.2341 8.81097 10.758L7.02964 9.64571C6.70554 9.44334 6.29446 9.44334 5.97036 9.64571L4.18903 10.758C3.42646 11.2341 2.47181 10.5406 2.68902 9.66816L3.19639 7.6303C3.2887 7.25953 3.16167 6.86857 2.86906 6.62287L1.26076 5.27244C0.572261 4.69433 0.936901 3.57207 1.83371 3.50906L3.92862 3.36187C4.30977 3.33509 4.64234 3.09346 4.78559 2.73925L5.57294 0.792356Z" fill="#FCD400"/>
</svg>
