<svg width="25" height="25" viewBox="0 0 25 25" fill="none" xmlns="http://www.w3.org/2000/svg">
<g clip-path="url(#clip0_301_1692)">
<path d="M21.6774 2.43891C21.0562 1.86571 18.5458 0.0433124 12.954 0.0185536C12.954 0.0185536 6.35996 -0.379087 3.14544 2.56946C1.35606 4.35922 0.726582 6.97802 0.660183 10.2248C0.593785 13.4716 0.507879 19.5562 6.37309 21.2061H6.37871L6.37496 23.7236C6.37496 23.7236 6.33745 24.7428 7.00856 24.9506C7.82035 25.2027 8.29677 24.4281 9.07179 23.593C9.49719 23.1346 10.0847 22.4613 10.5273 21.9466C14.5386 22.2842 17.6237 21.5126 17.9741 21.3985C18.784 21.1359 23.367 20.5488 24.1124 14.4646C24.8818 8.19345 23.7402 4.2268 21.6774 2.43891Z" fill="white"/>
<path d="M20.3735 3.70522C19.8483 3.22805 17.5814 1.80367 12.8513 1.78303C12.8513 1.78303 7.2502 1.41503 4.53123 3.87778C3.01794 5.37193 2.50814 7.59385 2.45224 10.3053C2.39635 13.0168 2.10674 18.1966 7.06638 19.5745C7.06638 19.5745 7.04687 23.42 7.04462 23.758C7.04462 23.9943 7.08214 24.156 7.21718 24.1894C7.31434 24.213 7.45989 24.1627 7.58369 24.0393C8.37672 23.2429 10.9156 20.1799 10.9156 20.1799C14.3222 20.4024 17.0325 19.7298 17.324 19.6345C18.0113 19.4135 21.7285 19.0943 22.3576 14.0128C23.0077 8.77477 22.1186 5.19937 20.3735 3.70522Z" fill="#7360F2"/>
<path d="M15.2563 10.0825C15.1948 8.8423 14.5648 8.19094 13.3664 8.12842" stroke="white" stroke-width="0.773652" stroke-linecap="round" stroke-linejoin="round"/>
<path d="M16.8787 10.6264C16.9037 9.47098 16.5615 8.50564 15.852 7.73036C15.1392 6.95233 14.1526 6.52393 12.8866 6.43127" stroke="white" stroke-width="0.773652" stroke-linecap="round" stroke-linejoin="round"/>
<path d="M18.5398 11.2761C18.5246 9.27111 17.9255 7.69205 16.7426 6.53889C15.5597 5.38573 14.0885 4.80303 12.3291 4.79077" stroke="white" stroke-width="0.773652" stroke-linecap="round" stroke-linejoin="round"/>
<path d="M13.429 14.3181C13.429 14.3181 13.8735 14.3556 14.1129 14.0607L14.5795 13.4736C14.8046 13.1825 15.3478 12.9968 15.8798 13.2932C16.2784 13.5205 16.6654 13.7677 17.0393 14.0337C17.3923 14.2933 18.1152 14.8965 18.1174 14.8965C18.4618 15.1872 18.5413 15.6141 18.3069 16.0643C18.3069 16.0669 18.305 16.0714 18.305 16.0737C18.0468 16.5213 17.7189 16.925 17.3338 17.2696C17.3293 17.2719 17.3293 17.2741 17.3251 17.2764C16.9905 17.556 16.6618 17.7149 16.3389 17.7532C16.2914 17.7615 16.2431 17.7645 16.1949 17.7622C16.0525 17.7635 15.9108 17.7417 15.7755 17.6976L15.765 17.6823C15.2675 17.542 14.437 17.1908 13.0539 16.4278C12.2535 15.9915 11.4915 15.4881 10.7761 14.9232C10.4175 14.6401 10.0754 14.3368 9.75158 14.0146L9.71707 13.9801L9.68255 13.9456L9.64804 13.911C9.63641 13.8998 9.62516 13.8882 9.61353 13.8765C9.29132 13.5527 8.98797 13.2106 8.70496 12.852C8.14008 12.1367 7.63673 11.3748 7.2003 10.5746C6.43728 9.19111 6.08615 8.36132 5.94585 7.86314L5.93047 7.85264C5.88649 7.71724 5.86483 7.57559 5.86632 7.43324C5.8637 7.38505 5.86659 7.33672 5.87495 7.28919C5.91522 6.96682 6.0744 6.63783 6.3525 6.30221C6.35475 6.29809 6.357 6.29809 6.35925 6.29359C6.70373 5.90844 7.10745 5.58071 7.55517 5.32274C7.55742 5.32274 7.56193 5.32049 7.56455 5.32049C8.01471 5.08603 8.44161 5.16556 8.73197 5.50806C8.73422 5.51031 9.33631 6.23319 9.59477 6.58619C9.86083 6.96047 10.108 7.34785 10.3353 7.74685C10.6316 8.27842 10.446 8.82273 10.1548 9.04706L9.56776 9.51373C9.27141 9.75306 9.31042 10.1976 9.31042 10.1976C9.31042 10.1976 10.18 13.4886 13.429 14.3181Z" fill="white"/>
</g>
<defs>
<clipPath id="clip0_301_1692">
<rect width="23.708" height="25" fill="white" transform="translate(0.645981)"/>
</clipPath>
</defs>
</svg>
