<svg width="30" height="31" viewBox="0 0 30 31" fill="none" xmlns="http://www.w3.org/2000/svg">
<path d="M3.04251 27.5644L4.72626 21.4175C3.68751 19.6187 3.14126 17.5775 3.14189 15.4869C3.14501 8.94625 8.46751 3.625 15.0088 3.625C18.1831 3.62625 21.1619 4.86188 23.4025 7.10375C25.6425 9.34625 26.8763 12.3263 26.875 15.4963C26.8725 22.0369 21.5488 27.3587 15.0088 27.3587C15.0081 27.3587 15.0088 27.3587 15.0088 27.3587H15.0038C13.0181 27.3581 11.0663 26.86 9.33314 25.9144L3.04251 27.5644Z" fill="white"/>
<path d="M3.04251 27.8769C2.96001 27.8769 2.88001 27.8444 2.82064 27.7844C2.74251 27.705 2.71189 27.5894 2.74126 27.4825L4.39064 21.46C3.36814 19.6437 2.82876 17.5812 2.83001 15.4875C2.83251 8.77375 8.29564 3.3125 15.0088 3.3125C18.265 3.31375 21.3244 4.58188 23.6238 6.88313C25.9231 9.185 27.1888 12.2437 27.1875 15.4963C27.185 22.2094 21.7213 27.6712 15.0088 27.6712C13.0156 27.6706 11.0438 27.1787 9.29376 26.2481L3.12189 27.8662C3.09564 27.8737 3.06939 27.8769 3.04251 27.8769Z" fill="white"/>
<path d="M15.0087 3.625C18.1831 3.62625 21.1619 4.86188 23.4025 7.10375C25.6425 9.34625 26.8762 12.3263 26.875 15.4963C26.8725 22.0369 21.5487 27.3587 15.0087 27.3587H15.0037C13.0181 27.3581 11.0662 26.86 9.33312 25.9144L3.04249 27.5644L4.72624 21.4175C3.68749 19.6187 3.14124 17.5775 3.14187 15.4869C3.14499 8.94625 8.46749 3.625 15.0087 3.625ZM15.0087 3C8.12374 3 2.51999 8.60125 2.51687 15.4869C2.51624 17.5913 3.04749 19.665 4.05499 21.5006L2.43937 27.4C2.38062 27.6156 2.44062 27.8456 2.59812 28.0044C2.71687 28.1244 2.87749 28.19 3.04249 28.19C3.09562 28.19 3.14874 28.1831 3.20124 28.1694L9.25562 26.5819C11.0231 27.4994 13.0044 27.9837 15.0037 27.9844C21.8937 27.9844 27.4975 22.3825 27.5006 15.4969C27.5019 12.16 26.2037 9.0225 23.8456 6.6625C21.4862 4.30187 18.3481 3.00125 15.0087 3Z" fill="#CFD8DC"/>
<path d="M21.985 8.52003C20.1225 6.65628 17.6469 5.62941 15.0119 5.62878C9.57186 5.62878 5.14749 10.0513 5.14499 15.4875C5.14436 17.3507 5.66561 19.1644 6.65311 20.735L6.88811 21.1082L5.89124 24.7463L9.62436 23.7675L9.98499 23.9813C11.4987 24.88 13.235 25.355 15.005 25.3557H15.0087C20.445 25.3557 24.8694 20.9325 24.8712 15.4957C24.8719 12.8613 23.8475 10.3838 21.985 8.52003Z" fill="#40C351"/>
<path fill-rule="evenodd" clip-rule="evenodd" d="M12.0425 10.5282C11.8206 10.0344 11.5869 10.0244 11.375 10.0157C11.2019 10.0082 11.0044 10.0088 10.8069 10.0088C10.6094 10.0088 10.2881 10.0832 10.0162 10.3801C9.74437 10.6769 8.97812 11.3938 8.97812 12.8526C8.97812 14.3113 10.0406 15.7213 10.1887 15.9188C10.3369 16.1163 12.24 19.2057 15.2537 20.3944C17.7581 21.3819 18.2681 21.1857 18.8119 21.1363C19.3556 21.0869 20.5662 20.4194 20.8131 19.7269C21.06 19.0344 21.06 18.4413 20.9862 18.3176C20.9119 18.1938 20.7144 18.1201 20.4181 17.9713C20.1219 17.8226 18.6637 17.1057 18.3919 17.0069C18.12 16.9082 17.9225 16.8588 17.7244 17.1557C17.5269 17.4519 16.9587 18.1201 16.7856 18.3176C16.6125 18.5157 16.4394 18.5407 16.1431 18.3919C15.8469 18.2432 14.8919 17.9307 13.7587 16.9207C12.8775 16.1351 12.2825 15.1644 12.1094 14.8676C11.9362 14.5713 12.0906 14.4107 12.2394 14.2626C12.3725 14.1294 12.5356 13.9163 12.6844 13.7432C12.8325 13.5701 12.8819 13.4463 12.9806 13.2488C13.0794 13.0507 13.03 12.8776 12.9556 12.7294C12.8825 12.5807 12.3062 11.1144 12.0425 10.5282Z" fill="white"/>
</svg>
